<svg width="240" height="125" viewBox="0 0 240 125" fill="none" xmlns="http://www.w3.org/2000/svg">
<rect y="30.1468" width="30" height="0.424603" rx="0.212302" fill="black"/>
<rect x="8.07532" width="17.7923" height="0.382143" rx="0.191071" fill="black"/>
<rect x="8.07532" width="0.450437" height="30.5714" rx="0.225219" fill="black"/>
<rect x="25.4171" width="0.450437" height="4.20357" rx="0.225219" fill="black"/>
<rect x="25.4171" y="9.17145" width="0.450437" height="11.4643" fill="black"/>
<rect width="0.434521" height="6.40496" rx="0.217261" transform="matrix(0.898056 0.43988 -0.56261 0.826722 25.4995 20.3491)" fill="black"/>
<rect width="0.434743" height="6.40496" rx="0.217372" transform="matrix(-0.898056 0.43988 0.56261 0.826722 25.7773 20.349)" fill="black"/>
<rect width="0.434289" height="6.40496" rx="0.217144" transform="matrix(-0.898056 0.43988 0.56261 0.826722 25.777 9.07593)" fill="black"/>
<rect width="0.434313" height="6.40496" rx="0.217157" transform="matrix(0.898056 0.43988 -0.56261 0.826722 25.4996 9.0759)" fill="black"/>
<path fill-rule="evenodd" clip-rule="evenodd" d="M25.6424 8.7893C27.135 8.7893 28.345 7.76275 28.345 6.49644C28.345 5.23013 27.135 4.20358 25.6424 4.20358C24.1498 4.20358 22.9398 5.23013 22.9398 6.49644C22.9398 7.76275 24.1498 8.7893 25.6424 8.7893ZM25.6424 9.17144C27.3838 9.17144 28.7954 7.9738 28.7954 6.49644C28.7954 5.01908 27.3838 3.82144 25.6424 3.82144C23.901 3.82144 22.4893 5.01908 22.4893 6.49644C22.4893 7.9738 23.901 9.17144 25.6424 9.17144Z" fill="black"/>
<rect width="30" height="0.424603" rx="0.212302" transform="matrix(-1 0 0 1 60 30.1469)" fill="black"/>
<rect width="17.7923" height="0.382143" rx="0.191071" transform="matrix(-1 0 0 1 52.7818 0)" fill="black"/>
<rect width="0.450437" height="30.5714" rx="0.225219" transform="matrix(-1 0 0 1 52.7818 0)" fill="black"/>
<rect width="0.450437" height="4.20357" rx="0.225219" transform="matrix(-1 0 0 1 35.44 0)" fill="black"/>
<rect width="0.450437" height="11.4643" transform="matrix(-1 0 0 1 35.44 9.17145)" fill="black"/>
<rect width="0.434521" height="6.40496" rx="0.217261" transform="matrix(-0.898056 0.43988 0.56261 0.826722 35.3576 20.3491)" fill="black"/>
<rect width="0.434743" height="6.40496" rx="0.217372" transform="matrix(0.898056 0.43988 -0.56261 0.826722 35.0799 20.349)" fill="black"/>
<rect width="0.434289" height="6.40496" rx="0.217144" transform="matrix(0.898056 0.43988 -0.56261 0.826722 35.0801 9.07593)" fill="black"/>
<rect width="0.434313" height="6.40496" rx="0.217157" transform="matrix(-0.898056 0.43988 0.56261 0.826722 35.3575 9.0759)" fill="black"/>
<path fill-rule="evenodd" clip-rule="evenodd" d="M35.2147 8.7893C33.7221 8.7893 32.5121 7.76275 32.5121 6.49644C32.5121 5.23013 33.7221 4.20358 35.2147 4.20358C36.7074 4.20358 37.9174 5.23013 37.9174 6.49644C37.9174 7.76275 36.7074 8.7893 35.2147 8.7893ZM35.2147 9.17144C33.4733 9.17144 32.0617 7.9738 32.0617 6.49644C32.0617 5.01908 33.4733 3.82144 35.2147 3.82144C36.9561 3.82144 38.3678 5.01908 38.3678 6.49644C38.3678 7.9738 36.9561 9.17144 35.2147 9.17144Z" fill="black"/>
<rect x="52.7818" y="61.4286" width="17.7923" height="0.382143" rx="0.191071" transform="rotate(-180 52.7818 61.4286)" fill="black"/>
<rect x="52.7818" y="61.4286" width="0.450437" height="30.5714" rx="0.225219" transform="rotate(-180 52.7818 61.4286)" fill="black"/>
<rect x="35.44" y="61.4286" width="0.450437" height="4.20357" rx="0.225219" transform="rotate(-180 35.44 61.4286)" fill="black"/>
<rect x="35.44" y="52.2571" width="0.450437" height="11.4643" transform="rotate(-180 35.44 52.2571)" fill="black"/>
<rect width="0.434521" height="6.40496" rx="0.217261" transform="matrix(-0.898056 -0.43988 0.56261 -0.826722 35.3576 41.0795)" fill="black"/>
<rect width="0.434743" height="6.40496" rx="0.217372" transform="matrix(0.898056 -0.43988 -0.56261 -0.826722 35.0799 41.0796)" fill="black"/>
<rect width="0.434289" height="6.40496" rx="0.217144" transform="matrix(0.898056 -0.43988 -0.56261 -0.826722 35.0801 52.3527)" fill="black"/>
<rect width="0.434313" height="6.40496" rx="0.217157" transform="matrix(-0.898056 -0.43988 0.56261 -0.826722 35.3575 52.3527)" fill="black"/>
<path fill-rule="evenodd" clip-rule="evenodd" d="M35.2147 52.6393C33.7221 52.6393 32.5121 53.6658 32.5121 54.9321C32.5121 56.1985 33.7221 57.225 35.2147 57.225C36.7074 57.225 37.9174 56.1985 37.9174 54.9321C37.9174 53.6658 36.7074 52.6393 35.2147 52.6393ZM35.2147 52.2571C33.4733 52.2571 32.0617 53.4548 32.0617 54.9321C32.0617 56.4095 33.4733 57.6071 35.2147 57.6071C36.9561 57.6071 38.3678 56.4095 38.3678 54.9321C38.3678 53.4548 36.9561 52.2571 35.2147 52.2571Z" fill="black"/>
<rect width="17.7923" height="0.382143" rx="0.191071" transform="matrix(1 0 0 -1 8.07532 61.4286)" fill="black"/>
<rect width="0.450437" height="30.5714" rx="0.225219" transform="matrix(1 0 0 -1 8.07532 61.4286)" fill="black"/>
<rect width="0.450437" height="4.20357" rx="0.225219" transform="matrix(1 0 0 -1 25.4171 61.4286)" fill="black"/>
<rect width="0.450437" height="11.4643" transform="matrix(1 0 0 -1 25.4171 52.2571)" fill="black"/>
<rect width="0.434521" height="6.40496" rx="0.217261" transform="matrix(0.898056 -0.43988 -0.56261 -0.826722 25.4995 41.0795)" fill="black"/>
<rect width="0.434743" height="6.40496" rx="0.217372" transform="matrix(-0.898056 -0.43988 0.56261 -0.826722 25.7773 41.0796)" fill="black"/>
<rect width="0.434289" height="6.40496" rx="0.217144" transform="matrix(-0.898056 -0.43988 0.56261 -0.826722 25.777 52.3527)" fill="black"/>
<rect width="0.434313" height="6.40496" rx="0.217157" transform="matrix(0.898056 -0.43988 -0.56261 -0.826722 25.4996 52.3527)" fill="black"/>
<path fill-rule="evenodd" clip-rule="evenodd" d="M25.6424 52.6393C27.135 52.6393 28.345 53.6658 28.345 54.9321C28.345 56.1985 27.135 57.225 25.6424 57.225C24.1498 57.225 22.9398 56.1985 22.9398 54.9321C22.9398 53.6658 24.1498 52.6393 25.6424 52.6393ZM25.6424 52.2571C27.3838 52.2571 28.7954 53.4548 28.7954 54.9321C28.7954 56.4095 27.3838 57.6071 25.6424 57.6071C23.901 57.6071 22.4893 56.4095 22.4893 54.9321C22.4893 53.4548 23.901 52.2571 25.6424 52.2571Z" fill="black"/>
<rect x="60" y="30.1468" width="30" height="0.424603" rx="0.212302" fill="#1227E0"/>
<rect x="68.0753" width="17.7923" height="0.382143" rx="0.191071" fill="#1227E0"/>
<rect x="68.0753" width="0.450437" height="30.5714" rx="0.225219" fill="#1227E0"/>
<rect x="85.4171" width="0.450437" height="4.20357" rx="0.225219" fill="#1227E0"/>
<rect x="85.4171" y="9.17145" width="0.450437" height="11.4643" fill="#1227E0"/>
<rect width="0.434521" height="6.40496" rx="0.217261" transform="matrix(0.898056 0.43988 -0.56261 0.826722 85.4995 20.3491)" fill="#1227E0"/>
<rect width="0.434743" height="6.40496" rx="0.217372" transform="matrix(-0.898056 0.43988 0.56261 0.826722 85.7773 20.349)" fill="#1227E0"/>
<rect width="0.434289" height="6.40496" rx="0.217144" transform="matrix(-0.898056 0.43988 0.56261 0.826722 85.777 9.07593)" fill="#1227E0"/>
<rect width="0.434313" height="6.40496" rx="0.217157" transform="matrix(0.898056 0.43988 -0.56261 0.826722 85.4996 9.0759)" fill="#1227E0"/>
<path fill-rule="evenodd" clip-rule="evenodd" d="M85.6424 8.7893C87.135 8.7893 88.345 7.76275 88.345 6.49644C88.345 5.23013 87.135 4.20358 85.6424 4.20358C84.1498 4.20358 82.9398 5.23013 82.9398 6.49644C82.9398 7.76275 84.1498 8.7893 85.6424 8.7893ZM85.6424 9.17144C87.3838 9.17144 88.7954 7.9738 88.7954 6.49644C88.7954 5.01908 87.3838 3.82144 85.6424 3.82144C83.901 3.82144 82.4893 5.01908 82.4893 6.49644C82.4893 7.9738 83.901 9.17144 85.6424 9.17144Z" fill="#1227E0"/>
<rect width="30" height="0.424603" rx="0.212302" transform="matrix(-1 0 0 1 120 30.1469)" fill="#1227E0"/>
<rect width="17.7923" height="0.382143" rx="0.191071" transform="matrix(-1 0 0 1 112.782 0)" fill="#1227E0"/>
<rect width="0.450437" height="30.5714" rx="0.225219" transform="matrix(-1 0 0 1 112.782 0)" fill="#1227E0"/>
<rect width="0.450437" height="4.20357" rx="0.225219" transform="matrix(-1 0 0 1 95.44 0)" fill="#1227E0"/>
<rect width="0.450437" height="11.4643" transform="matrix(-1 0 0 1 95.44 9.17145)" fill="#1227E0"/>
<rect width="0.434521" height="6.40496" rx="0.217261" transform="matrix(-0.898056 0.43988 0.56261 0.826722 95.3576 20.3491)" fill="#1227E0"/>
<rect width="0.434743" height="6.40496" rx="0.217372" transform="matrix(0.898056 0.43988 -0.56261 0.826722 95.0799 20.349)" fill="#1227E0"/>
<rect width="0.434289" height="6.40496" rx="0.217144" transform="matrix(0.898056 0.43988 -0.56261 0.826722 95.0801 9.07593)" fill="#1227E0"/>
<rect width="0.434313" height="6.40496" rx="0.217157" transform="matrix(-0.898056 0.43988 0.56261 0.826722 95.3575 9.0759)" fill="#1227E0"/>
<path fill-rule="evenodd" clip-rule="evenodd" d="M95.2147 8.7893C93.7221 8.7893 92.5121 7.76275 92.5121 6.49644C92.5121 5.23013 93.7221 4.20358 95.2147 4.20358C96.7074 4.20358 97.9174 5.23013 97.9174 6.49644C97.9174 7.76275 96.7074 8.7893 95.2147 8.7893ZM95.2147 9.17144C93.4733 9.17144 92.0617 7.9738 92.0617 6.49644C92.0617 5.01908 93.4733 3.82144 95.2147 3.82144C96.9561 3.82144 98.3678 5.01908 98.3678 6.49644C98.3678 7.9738 96.9561 9.17144 95.2147 9.17144Z" fill="#1227E0"/>
<rect x="112.782" y="61.4286" width="17.7923" height="0.382143" rx="0.191071" transform="rotate(-180 112.782 61.4286)" fill="#1227E0"/>
<rect x="112.782" y="61.4286" width="0.450437" height="30.5714" rx="0.225219" transform="rotate(-180 112.782 61.4286)" fill="#1227E0"/>
<rect x="95.44" y="61.4286" width="0.450437" height="4.20357" rx="0.225219" transform="rotate(-180 95.44 61.4286)" fill="#1227E0"/>
<rect x="95.44" y="52.2571" width="0.450437" height="11.4643" transform="rotate(-180 95.44 52.2571)" fill="#1227E0"/>
<rect width="0.434521" height="6.40496" rx="0.217261" transform="matrix(-0.898056 -0.43988 0.56261 -0.826722 95.3576 41.0795)" fill="#1227E0"/>
<rect width="0.434743" height="6.40496" rx="0.217372" transform="matrix(0.898056 -0.43988 -0.56261 -0.826722 95.0799 41.0796)" fill="#1227E0"/>
<rect width="0.434289" height="6.40496" rx="0.217144" transform="matrix(0.898056 -0.43988 -0.56261 -0.826722 95.0801 52.3527)" fill="#1227E0"/>
<rect width="0.434313" height="6.40496" rx="0.217157" transform="matrix(-0.898056 -0.43988 0.56261 -0.826722 95.3575 52.3527)" fill="#1227E0"/>
<path fill-rule="evenodd" clip-rule="evenodd" d="M95.2147 52.6393C93.7221 52.6393 92.5121 53.6658 92.5121 54.9321C92.5121 56.1985 93.7221 57.225 95.2147 57.225C96.7074 57.225 97.9174 56.1985 97.9174 54.9321C97.9174 53.6658 96.7074 52.6393 95.2147 52.6393ZM95.2147 52.2571C93.4733 52.2571 92.0617 53.4548 92.0617 54.9321C92.0617 56.4095 93.4733 57.6071 95.2147 57.6071C96.9561 57.6071 98.3678 56.4095 98.3678 54.9321C98.3678 53.4548 96.9561 52.2571 95.2147 52.2571Z" fill="#1227E0"/>
<rect width="17.7923" height="0.382143" rx="0.191071" transform="matrix(1 0 0 -1 68.0753 61.4286)" fill="#1227E0"/>
<rect width="0.450437" height="30.5714" rx="0.225219" transform="matrix(1 0 0 -1 68.0753 61.4286)" fill="#1227E0"/>
<rect width="0.450437" height="4.20357" rx="0.225219" transform="matrix(1 0 0 -1 85.4171 61.4286)" fill="#1227E0"/>
<rect width="0.450437" height="11.4643" transform="matrix(1 0 0 -1 85.4171 52.2571)" fill="#1227E0"/>
<rect width="0.434521" height="6.40496" rx="0.217261" transform="matrix(0.898056 -0.43988 -0.56261 -0.826722 85.4995 41.0795)" fill="#1227E0"/>
<rect width="0.434743" height="6.40496" rx="0.217372" transform="matrix(-0.898056 -0.43988 0.56261 -0.826722 85.7773 41.0796)" fill="#1227E0"/>
<rect width="0.434289" height="6.40496" rx="0.217144" transform="matrix(-0.898056 -0.43988 0.56261 -0.826722 85.777 52.3527)" fill="#1227E0"/>
<rect width="0.434313" height="6.40496" rx="0.217157" transform="matrix(0.898056 -0.43988 -0.56261 -0.826722 85.4996 52.3527)" fill="#1227E0"/>
<path fill-rule="evenodd" clip-rule="evenodd" d="M85.6424 52.6393C87.135 52.6393 88.345 53.6658 88.345 54.9321C88.345 56.1985 87.135 57.225 85.6424 57.225C84.1498 57.225 82.9398 56.1985 82.9398 54.9321C82.9398 53.6658 84.1498 52.6393 85.6424 52.6393ZM85.6424 52.2571C87.3838 52.2571 88.7954 53.4548 88.7954 54.9321C88.7954 56.4095 87.3838 57.6071 85.6424 57.6071C83.901 57.6071 82.4893 56.4095 82.4893 54.9321C82.4893 53.4548 83.901 52.2571 85.6424 52.2571Z" fill="#1227E0"/>
<rect x="120" y="30.1468" width="30" height="0.424603" rx="0.212302" fill="#7B00AC"/>
<rect x="128.075" width="17.7923" height="0.382143" rx="0.191071" fill="#7B00AC"/>
<rect x="128.075" width="0.450437" height="30.5714" rx="0.225219" fill="#7B00AC"/>
<rect x="145.417" width="0.450437" height="4.20357" rx="0.225219" fill="#7B00AC"/>
<rect x="145.417" y="9.17145" width="0.450437" height="11.4643" fill="#7B00AC"/>
<rect width="0.434521" height="6.40496" rx="0.217261" transform="matrix(0.898056 0.43988 -0.56261 0.826722 145.5 20.3491)" fill="#7B00AC"/>
<rect width="0.434743" height="6.40496" rx="0.217372" transform="matrix(-0.898056 0.43988 0.56261 0.826722 145.777 20.349)" fill="#7B00AC"/>
<rect width="0.434289" height="6.40496" rx="0.217144" transform="matrix(-0.898056 0.43988 0.56261 0.826722 145.777 9.07593)" fill="#7B00AC"/>
<rect width="0.434313" height="6.40496" rx="0.217157" transform="matrix(0.898056 0.43988 -0.56261 0.826722 145.5 9.0759)" fill="#7B00AC"/>
<path fill-rule="evenodd" clip-rule="evenodd" d="M145.642 8.7893C147.135 8.7893 148.345 7.76275 148.345 6.49644C148.345 5.23013 147.135 4.20358 145.642 4.20358C144.15 4.20358 142.94 5.23013 142.94 6.49644C142.94 7.76275 144.15 8.7893 145.642 8.7893ZM145.642 9.17144C147.384 9.17144 148.795 7.9738 148.795 6.49644C148.795 5.01908 147.384 3.82144 145.642 3.82144C143.901 3.82144 142.489 5.01908 142.489 6.49644C142.489 7.9738 143.901 9.17144 145.642 9.17144Z" fill="#7B00AC"/>
<rect width="30" height="0.424603" rx="0.212302" transform="matrix(-1 0 0 1 180 30.1469)" fill="#7B00AC"/>
<rect width="17.7923" height="0.382143" rx="0.191071" transform="matrix(-1 0 0 1 172.782 0)" fill="#7B00AC"/>
<rect width="0.450437" height="30.5714" rx="0.225219" transform="matrix(-1 0 0 1 172.782 0)" fill="#7B00AC"/>
<rect width="0.450437" height="4.20357" rx="0.225219" transform="matrix(-1 0 0 1 155.44 0)" fill="#7B00AC"/>
<rect width="0.450437" height="11.4643" transform="matrix(-1 0 0 1 155.44 9.17145)" fill="#7B00AC"/>
<rect width="0.434521" height="6.40496" rx="0.217261" transform="matrix(-0.898056 0.43988 0.56261 0.826722 155.358 20.3491)" fill="#7B00AC"/>
<rect width="0.434743" height="6.40496" rx="0.217372" transform="matrix(0.898056 0.43988 -0.56261 0.826722 155.08 20.349)" fill="#7B00AC"/>
<rect width="0.434289" height="6.40496" rx="0.217144" transform="matrix(0.898056 0.43988 -0.56261 0.826722 155.08 9.07593)" fill="#7B00AC"/>
<rect width="0.434313" height="6.40496" rx="0.217157" transform="matrix(-0.898056 0.43988 0.56261 0.826722 155.358 9.0759)" fill="#7B00AC"/>
<path fill-rule="evenodd" clip-rule="evenodd" d="M155.215 8.7893C153.722 8.7893 152.512 7.76275 152.512 6.49644C152.512 5.23013 153.722 4.20358 155.215 4.20358C156.707 4.20358 157.917 5.23013 157.917 6.49644C157.917 7.76275 156.707 8.7893 155.215 8.7893ZM155.215 9.17144C153.473 9.17144 152.062 7.9738 152.062 6.49644C152.062 5.01908 153.473 3.82144 155.215 3.82144C156.956 3.82144 158.368 5.01908 158.368 6.49644C158.368 7.9738 156.956 9.17144 155.215 9.17144Z" fill="#7B00AC"/>
<rect x="172.782" y="61.4286" width="17.7923" height="0.382143" rx="0.191071" transform="rotate(-180 172.782 61.4286)" fill="#7B00AC"/>
<rect x="172.782" y="61.4286" width="0.450437" height="30.5714" rx="0.225219" transform="rotate(-180 172.782 61.4286)" fill="#7B00AC"/>
<rect x="155.44" y="61.4286" width="0.450437" height="4.20357" rx="0.225219" transform="rotate(-180 155.44 61.4286)" fill="#7B00AC"/>
<rect x="155.44" y="52.2571" width="0.450437" height="11.4643" transform="rotate(-180 155.44 52.2571)" fill="#7B00AC"/>
<rect width="0.434521" height="6.40496" rx="0.217261" transform="matrix(-0.898056 -0.43988 0.56261 -0.826722 155.358 41.0795)" fill="#7B00AC"/>
<rect width="0.434743" height="6.40496" rx="0.217372" transform="matrix(0.898056 -0.43988 -0.56261 -0.826722 155.08 41.0796)" fill="#7B00AC"/>
<rect width="0.434289" height="6.40496" rx="0.217144" transform="matrix(0.898056 -0.43988 -0.56261 -0.826722 155.08 52.3527)" fill="#7B00AC"/>
<rect width="0.434313" height="6.40496" rx="0.217157" transform="matrix(-0.898056 -0.43988 0.56261 -0.826722 155.358 52.3527)" fill="#7B00AC"/>
<path fill-rule="evenodd" clip-rule="evenodd" d="M155.215 52.6393C153.722 52.6393 152.512 53.6658 152.512 54.9321C152.512 56.1985 153.722 57.225 155.215 57.225C156.707 57.225 157.917 56.1985 157.917 54.9321C157.917 53.6658 156.707 52.6393 155.215 52.6393ZM155.215 52.2571C153.473 52.2571 152.062 53.4548 152.062 54.9321C152.062 56.4095 153.473 57.6071 155.215 57.6071C156.956 57.6071 158.368 56.4095 158.368 54.9321C158.368 53.4548 156.956 52.2571 155.215 52.2571Z" fill="#7B00AC"/>
<rect width="17.7923" height="0.382143" rx="0.191071" transform="matrix(1 0 0 -1 128.075 61.4286)" fill="#7B00AC"/>
<rect width="0.450437" height="30.5714" rx="0.225219" transform="matrix(1 0 0 -1 128.075 61.4286)" fill="#7B00AC"/>
<rect width="0.450437" height="4.20357" rx="0.225219" transform="matrix(1 0 0 -1 145.417 61.4286)" fill="#7B00AC"/>
<rect width="0.450437" height="11.4643" transform="matrix(1 0 0 -1 145.417 52.2571)" fill="#7B00AC"/>
<rect width="0.434521" height="6.40496" rx="0.217261" transform="matrix(0.898056 -0.43988 -0.56261 -0.826722 145.5 41.0795)" fill="#7B00AC"/>
<rect width="0.434743" height="6.40496" rx="0.217372" transform="matrix(-0.898056 -0.43988 0.56261 -0.826722 145.777 41.0796)" fill="#7B00AC"/>
<rect width="0.434289" height="6.40496" rx="0.217144" transform="matrix(-0.898056 -0.43988 0.56261 -0.826722 145.777 52.3527)" fill="#7B00AC"/>
<rect width="0.434313" height="6.40496" rx="0.217157" transform="matrix(0.898056 -0.43988 -0.56261 -0.826722 145.5 52.3527)" fill="#7B00AC"/>
<path fill-rule="evenodd" clip-rule="evenodd" d="M145.642 52.6393C147.135 52.6393 148.345 53.6658 148.345 54.9321C148.345 56.1985 147.135 57.225 145.642 57.225C144.15 57.225 142.94 56.1985 142.94 54.9321C142.94 53.6658 144.15 52.6393 145.642 52.6393ZM145.642 52.2571C147.384 52.2571 148.795 53.4548 148.795 54.9321C148.795 56.4095 147.384 57.6071 145.642 57.6071C143.901 57.6071 142.489 56.4095 142.489 54.9321C142.489 53.4548 143.901 52.2571 145.642 52.2571Z" fill="#7B00AC"/>
<rect x="180" y="30.1468" width="30" height="0.424603" rx="0.212302" fill="#EC260B"/>
<rect x="188.075" width="17.7923" height="0.382143" rx="0.191071" fill="#EC260B"/>
<rect x="188.075" width="0.450437" height="30.5714" rx="0.225219" fill="#EC260B"/>
<rect x="205.417" width="0.450437" height="4.20357" rx="0.225219" fill="#EC260B"/>
<rect x="205.417" y="9.17145" width="0.450437" height="11.4643" fill="#EC260B"/>
<rect width="0.434521" height="6.40496" rx="0.217261" transform="matrix(0.898056 0.43988 -0.56261 0.826722 205.5 20.3491)" fill="#EC260B"/>
<rect width="0.434743" height="6.40496" rx="0.217372" transform="matrix(-0.898056 0.43988 0.56261 0.826722 205.777 20.349)" fill="#EC260B"/>
<rect width="0.434289" height="6.40496" rx="0.217144" transform="matrix(-0.898056 0.43988 0.56261 0.826722 205.777 9.07593)" fill="#EC260B"/>
<rect width="0.434313" height="6.40496" rx="0.217157" transform="matrix(0.898056 0.43988 -0.56261 0.826722 205.5 9.0759)" fill="#EC260B"/>
<path fill-rule="evenodd" clip-rule="evenodd" d="M205.642 8.7893C207.135 8.7893 208.345 7.76275 208.345 6.49644C208.345 5.23013 207.135 4.20358 205.642 4.20358C204.15 4.20358 202.94 5.23013 202.94 6.49644C202.94 7.76275 204.15 8.7893 205.642 8.7893ZM205.642 9.17144C207.384 9.17144 208.795 7.9738 208.795 6.49644C208.795 5.01908 207.384 3.82144 205.642 3.82144C203.901 3.82144 202.489 5.01908 202.489 6.49644C202.489 7.9738 203.901 9.17144 205.642 9.17144Z" fill="#EC260B"/>
<rect width="30" height="0.424603" rx="0.212302" transform="matrix(-1 0 0 1 240 30.1469)" fill="#EC260B"/>
<rect width="17.7923" height="0.382143" rx="0.191071" transform="matrix(-1 0 0 1 232.782 0)" fill="#EC260B"/>
<rect width="0.450437" height="30.5714" rx="0.225219" transform="matrix(-1 0 0 1 232.782 0)" fill="#EC260B"/>
<rect width="0.450437" height="4.20357" rx="0.225219" transform="matrix(-1 0 0 1 215.44 0)" fill="#EC260B"/>
<rect width="0.450437" height="11.4643" transform="matrix(-1 0 0 1 215.44 9.17145)" fill="#EC260B"/>
<rect width="0.434521" height="6.40496" rx="0.217261" transform="matrix(-0.898056 0.43988 0.56261 0.826722 215.358 20.3491)" fill="#EC260B"/>
<rect width="0.434743" height="6.40496" rx="0.217372" transform="matrix(0.898056 0.43988 -0.56261 0.826722 215.08 20.349)" fill="#EC260B"/>
<rect width="0.434289" height="6.40496" rx="0.217144" transform="matrix(0.898056 0.43988 -0.56261 0.826722 215.08 9.07593)" fill="#EC260B"/>
<rect width="0.434313" height="6.40496" rx="0.217157" transform="matrix(-0.898056 0.43988 0.56261 0.826722 215.358 9.0759)" fill="#EC260B"/>
<path fill-rule="evenodd" clip-rule="evenodd" d="M215.215 8.7893C213.722 8.7893 212.512 7.76275 212.512 6.49644C212.512 5.23013 213.722 4.20358 215.215 4.20358C216.707 4.20358 217.917 5.23013 217.917 6.49644C217.917 7.76275 216.707 8.7893 215.215 8.7893ZM215.215 9.17144C213.473 9.17144 212.062 7.9738 212.062 6.49644C212.062 5.01908 213.473 3.82144 215.215 3.82144C216.956 3.82144 218.368 5.01908 218.368 6.49644C218.368 7.9738 216.956 9.17144 215.215 9.17144Z" fill="#EC260B"/>
<rect x="232.782" y="61.4286" width="17.7923" height="0.382143" rx="0.191071" transform="rotate(-180 232.782 61.4286)" fill="#EC260B"/>
<rect x="232.782" y="61.4286" width="0.450437" height="30.5714" rx="0.225219" transform="rotate(-180 232.782 61.4286)" fill="#EC260B"/>
<rect x="215.44" y="61.4286" width="0.450437" height="4.20357" rx="0.225219" transform="rotate(-180 215.44 61.4286)" fill="#EC260B"/>
<rect x="215.44" y="52.2571" width="0.450437" height="11.4643" transform="rotate(-180 215.44 52.2571)" fill="#EC260B"/>
<rect width="0.434521" height="6.40496" rx="0.217261" transform="matrix(-0.898056 -0.43988 0.56261 -0.826722 215.358 41.0795)" fill="#EC260B"/>
<rect width="0.434743" height="6.40496" rx="0.217372" transform="matrix(0.898056 -0.43988 -0.56261 -0.826722 215.08 41.0796)" fill="#EC260B"/>
<rect width="0.434289" height="6.40496" rx="0.217144" transform="matrix(0.898056 -0.43988 -0.56261 -0.826722 215.08 52.3527)" fill="#EC260B"/>
<rect width="0.434313" height="6.40496" rx="0.217157" transform="matrix(-0.898056 -0.43988 0.56261 -0.826722 215.358 52.3527)" fill="#EC260B"/>
<path fill-rule="evenodd" clip-rule="evenodd" d="M215.215 52.6393C213.722 52.6393 212.512 53.6658 212.512 54.9321C212.512 56.1985 213.722 57.225 215.215 57.225C216.707 57.225 217.917 56.1985 217.917 54.9321C217.917 53.6658 216.707 52.6393 215.215 52.6393ZM215.215 52.2571C213.473 52.2571 212.062 53.4548 212.062 54.9321C212.062 56.4095 213.473 57.6071 215.215 57.6071C216.956 57.6071 218.368 56.4095 218.368 54.9321C218.368 53.4548 216.956 52.2571 215.215 52.2571Z" fill="#EC260B"/>
<rect width="17.7923" height="0.382143" rx="0.191071" transform="matrix(1 0 0 -1 188.075 61.4286)" fill="#EC260B"/>
<rect width="0.450437" height="30.5714" rx="0.225219" transform="matrix(1 0 0 -1 188.075 61.4286)" fill="#EC260B"/>
<rect width="0.450437" height="4.20357" rx="0.225219" transform="matrix(1 0 0 -1 205.417 61.4286)" fill="#EC260B"/>
<rect width="0.450437" height="11.4643" transform="matrix(1 0 0 -1 205.417 52.2571)" fill="#EC260B"/>
<rect width="0.434521" height="6.40496" rx="0.217261" transform="matrix(0.898056 -0.43988 -0.56261 -0.826722 205.5 41.0795)" fill="#EC260B"/>
<rect width="0.434743" height="6.40496" rx="0.217372" transform="matrix(-0.898056 -0.43988 0.56261 -0.826722 205.777 41.0796)" fill="#EC260B"/>
<rect width="0.434289" height="6.40496" rx="0.217144" transform="matrix(-0.898056 -0.43988 0.56261 -0.826722 205.777 52.3527)" fill="#EC260B"/>
<rect width="0.434313" height="6.40496" rx="0.217157" transform="matrix(0.898056 -0.43988 -0.56261 -0.826722 205.5 52.3527)" fill="#EC260B"/>
<path fill-rule="evenodd" clip-rule="evenodd" d="M205.642 52.6393C207.135 52.6393 208.345 53.6658 208.345 54.9321C208.345 56.1985 207.135 57.225 205.642 57.225C204.15 57.225 202.94 56.1985 202.94 54.9321C202.94 53.6658 204.15 52.6393 205.642 52.6393ZM205.642 52.2571C207.384 52.2571 208.795 53.4548 208.795 54.9321C208.795 56.4095 207.384 57.6071 205.642 57.6071C203.901 57.6071 202.489 56.4095 202.489 54.9321C202.489 53.4548 203.901 52.2571 205.642 52.2571Z" fill="#EC260B"/>
<rect y="93.5754" width="30" height="0.424603" rx="0.212302" fill="#F47A09"/>
<rect x="8.07532" y="63.4286" width="17.7923" height="0.382143" rx="0.191071" fill="#F47A09"/>
<rect x="8.07532" y="63.4286" width="0.450437" height="30.5714" rx="0.225219" fill="#F47A09"/>
<rect x="25.4171" y="63.4286" width="0.450437" height="4.20357" rx="0.225219" fill="#F47A09"/>
<rect x="25.4171" y="72.6" width="0.450437" height="11.4643" fill="#F47A09"/>
<rect width="0.434521" height="6.40496" rx="0.217261" transform="matrix(0.898056 0.43988 -0.56261 0.826722 25.4995 83.7776)" fill="#F47A09"/>
<rect width="0.434743" height="6.40496" rx="0.217372" transform="matrix(-0.898056 0.43988 0.56261 0.826722 25.7773 83.7776)" fill="#F47A09"/>
<rect width="0.434289" height="6.40496" rx="0.217144" transform="matrix(-0.898056 0.43988 0.56261 0.826722 25.777 72.5045)" fill="#F47A09"/>
<rect width="0.434313" height="6.40496" rx="0.217157" transform="matrix(0.898056 0.43988 -0.56261 0.826722 25.4996 72.5045)" fill="#F47A09"/>
<path fill-rule="evenodd" clip-rule="evenodd" d="M25.6424 72.2179C27.135 72.2179 28.345 71.1913 28.345 69.925C28.345 68.6587 27.135 67.6321 25.6424 67.6321C24.1498 67.6321 22.9398 68.6587 22.9398 69.925C22.9398 71.1913 24.1498 72.2179 25.6424 72.2179ZM25.6424 72.6C27.3838 72.6 28.7954 71.4024 28.7954 69.925C28.7954 68.4476 27.3838 67.25 25.6424 67.25C23.901 67.25 22.4893 68.4476 22.4893 69.925C22.4893 71.4024 23.901 72.6 25.6424 72.6Z" fill="#F47A09"/>
<rect width="30" height="0.424603" rx="0.212302" transform="matrix(-1 0 0 1 60 93.5754)" fill="#F47A09"/>
<rect width="17.7923" height="0.382143" rx="0.191071" transform="matrix(-1 0 0 1 52.7818 63.4286)" fill="#F47A09"/>
<rect width="0.450437" height="30.5714" rx="0.225219" transform="matrix(-1 0 0 1 52.7818 63.4286)" fill="#F47A09"/>
<rect width="0.450437" height="4.20357" rx="0.225219" transform="matrix(-1 0 0 1 35.44 63.4286)" fill="#F47A09"/>
<rect width="0.450437" height="11.4643" transform="matrix(-1 0 0 1 35.44 72.6)" fill="#F47A09"/>
<rect width="0.434521" height="6.40496" rx="0.217261" transform="matrix(-0.898056 0.43988 0.56261 0.826722 35.3576 83.7776)" fill="#F47A09"/>
<rect width="0.434743" height="6.40496" rx="0.217372" transform="matrix(0.898056 0.43988 -0.56261 0.826722 35.0799 83.7776)" fill="#F47A09"/>
<rect width="0.434289" height="6.40496" rx="0.217144" transform="matrix(0.898056 0.43988 -0.56261 0.826722 35.0801 72.5045)" fill="#F47A09"/>
<rect width="0.434313" height="6.40496" rx="0.217157" transform="matrix(-0.898056 0.43988 0.56261 0.826722 35.3575 72.5045)" fill="#F47A09"/>
<path fill-rule="evenodd" clip-rule="evenodd" d="M35.2147 72.2179C33.7221 72.2179 32.5121 71.1913 32.5121 69.925C32.5121 68.6587 33.7221 67.6321 35.2147 67.6321C36.7074 67.6321 37.9174 68.6587 37.9174 69.925C37.9174 71.1913 36.7074 72.2179 35.2147 72.2179ZM35.2147 72.6C33.4733 72.6 32.0617 71.4024 32.0617 69.925C32.0617 68.4476 33.4733 67.25 35.2147 67.25C36.9561 67.25 38.3678 68.4476 38.3678 69.925C38.3678 71.4024 36.9561 72.6 35.2147 72.6Z" fill="#F47A09"/>
<rect x="52.7818" y="124.857" width="17.7923" height="0.382143" rx="0.191071" transform="rotate(-180 52.7818 124.857)" fill="#F47A09"/>
<rect x="52.7818" y="124.857" width="0.450437" height="30.5714" rx="0.225219" transform="rotate(-180 52.7818 124.857)" fill="#F47A09"/>
<rect x="35.44" y="124.857" width="0.450437" height="4.20357" rx="0.225219" transform="rotate(-180 35.44 124.857)" fill="#F47A09"/>
<rect x="35.44" y="115.686" width="0.450437" height="11.4643" transform="rotate(-180 35.44 115.686)" fill="#F47A09"/>
<rect width="0.434521" height="6.40496" rx="0.217261" transform="matrix(-0.898056 -0.43988 0.56261 -0.826722 35.3576 104.508)" fill="#F47A09"/>
<rect width="0.434743" height="6.40496" rx="0.217372" transform="matrix(0.898056 -0.43988 -0.56261 -0.826722 35.0799 104.508)" fill="#F47A09"/>
<rect width="0.434289" height="6.40496" rx="0.217144" transform="matrix(0.898056 -0.43988 -0.56261 -0.826722 35.0801 115.781)" fill="#F47A09"/>
<rect width="0.434313" height="6.40496" rx="0.217157" transform="matrix(-0.898056 -0.43988 0.56261 -0.826722 35.3575 115.781)" fill="#F47A09"/>
<path fill-rule="evenodd" clip-rule="evenodd" d="M35.2147 116.068C33.7221 116.068 32.5121 117.094 32.5121 118.361C32.5121 119.627 33.7221 120.654 35.2147 120.654C36.7074 120.654 37.9174 119.627 37.9174 118.361C37.9174 117.094 36.7074 116.068 35.2147 116.068ZM35.2147 115.686C33.4733 115.686 32.0617 116.883 32.0617 118.361C32.0617 119.838 33.4733 121.036 35.2147 121.036C36.9561 121.036 38.3678 119.838 38.3678 118.361C38.3678 116.883 36.9561 115.686 35.2147 115.686Z" fill="#F47A09"/>
<rect width="17.7923" height="0.382143" rx="0.191071" transform="matrix(1 0 0 -1 8.07532 124.857)" fill="#F47A09"/>
<rect width="0.450437" height="30.5714" rx="0.225219" transform="matrix(1 0 0 -1 8.07532 124.857)" fill="#F47A09"/>
<rect width="0.450437" height="4.20357" rx="0.225219" transform="matrix(1 0 0 -1 25.4171 124.857)" fill="#F47A09"/>
<rect width="0.450437" height="11.4643" transform="matrix(1 0 0 -1 25.4171 115.686)" fill="#F47A09"/>
<rect width="0.434521" height="6.40496" rx="0.217261" transform="matrix(0.898056 -0.43988 -0.56261 -0.826722 25.4995 104.508)" fill="#F47A09"/>
<rect width="0.434743" height="6.40496" rx="0.217372" transform="matrix(-0.898056 -0.43988 0.56261 -0.826722 25.7773 104.508)" fill="#F47A09"/>
<rect width="0.434289" height="6.40496" rx="0.217144" transform="matrix(-0.898056 -0.43988 0.56261 -0.826722 25.777 115.781)" fill="#F47A09"/>
<rect width="0.434313" height="6.40496" rx="0.217157" transform="matrix(0.898056 -0.43988 -0.56261 -0.826722 25.4996 115.781)" fill="#F47A09"/>
<path fill-rule="evenodd" clip-rule="evenodd" d="M25.6424 116.068C27.135 116.068 28.345 117.094 28.345 118.361C28.345 119.627 27.135 120.654 25.6424 120.654C24.1498 120.654 22.9398 119.627 22.9398 118.361C22.9398 117.094 24.1498 116.068 25.6424 116.068ZM25.6424 115.686C27.3838 115.686 28.7954 116.883 28.7954 118.361C28.7954 119.838 27.3838 121.036 25.6424 121.036C23.901 121.036 22.4893 119.838 22.4893 118.361C22.4893 116.883 23.901 115.686 25.6424 115.686Z" fill="#F47A09"/>
<rect x="60" y="93.5754" width="30" height="0.424603" rx="0.212302" fill="#F2DB07"/>
<rect x="68.0753" y="63.4286" width="17.7923" height="0.382143" rx="0.191071" fill="#F2DB07"/>
<rect x="68.0753" y="63.4286" width="0.450437" height="30.5714" rx="0.225219" fill="#F2DB07"/>
<rect x="85.4171" y="63.4286" width="0.450437" height="4.20357" rx="0.225219" fill="#F2DB07"/>
<rect x="85.4171" y="72.6" width="0.450437" height="11.4643" fill="#F2DB07"/>
<rect width="0.434521" height="6.40496" rx="0.217261" transform="matrix(0.898056 0.43988 -0.56261 0.826722 85.4995 83.7776)" fill="#F2DB07"/>
<rect width="0.434743" height="6.40496" rx="0.217372" transform="matrix(-0.898056 0.43988 0.56261 0.826722 85.7773 83.7776)" fill="#F2DB07"/>
<rect width="0.434289" height="6.40496" rx="0.217144" transform="matrix(-0.898056 0.43988 0.56261 0.826722 85.777 72.5045)" fill="#F2DB07"/>
<rect width="0.434313" height="6.40496" rx="0.217157" transform="matrix(0.898056 0.43988 -0.56261 0.826722 85.4996 72.5045)" fill="#F2DB07"/>
<path fill-rule="evenodd" clip-rule="evenodd" d="M85.6424 72.2179C87.135 72.2179 88.345 71.1913 88.345 69.925C88.345 68.6587 87.135 67.6321 85.6424 67.6321C84.1498 67.6321 82.9398 68.6587 82.9398 69.925C82.9398 71.1913 84.1498 72.2179 85.6424 72.2179ZM85.6424 72.6C87.3838 72.6 88.7954 71.4024 88.7954 69.925C88.7954 68.4476 87.3838 67.25 85.6424 67.25C83.901 67.25 82.4893 68.4476 82.4893 69.925C82.4893 71.4024 83.901 72.6 85.6424 72.6Z" fill="#F2DB07"/>
<rect width="30" height="0.424603" rx="0.212302" transform="matrix(-1 0 0 1 120 93.5754)" fill="#F2DB07"/>
<rect width="17.7923" height="0.382143" rx="0.191071" transform="matrix(-1 0 0 1 112.782 63.4286)" fill="#F2DB07"/>
<rect width="0.450437" height="30.5714" rx="0.225219" transform="matrix(-1 0 0 1 112.782 63.4286)" fill="#F2DB07"/>
<rect width="0.450437" height="4.20357" rx="0.225219" transform="matrix(-1 0 0 1 95.44 63.4286)" fill="#F2DB07"/>
<rect width="0.450437" height="11.4643" transform="matrix(-1 0 0 1 95.44 72.6)" fill="#F2DB07"/>
<rect width="0.434521" height="6.40496" rx="0.217261" transform="matrix(-0.898056 0.43988 0.56261 0.826722 95.3576 83.7776)" fill="#F2DB07"/>
<rect width="0.434743" height="6.40496" rx="0.217372" transform="matrix(0.898056 0.43988 -0.56261 0.826722 95.0799 83.7776)" fill="#F2DB07"/>
<rect width="0.434289" height="6.40496" rx="0.217144" transform="matrix(0.898056 0.43988 -0.56261 0.826722 95.0801 72.5045)" fill="#F2DB07"/>
<rect width="0.434313" height="6.40496" rx="0.217157" transform="matrix(-0.898056 0.43988 0.56261 0.826722 95.3575 72.5045)" fill="#F2DB07"/>
<path fill-rule="evenodd" clip-rule="evenodd" d="M95.2147 72.2179C93.7221 72.2179 92.5121 71.1913 92.5121 69.925C92.5121 68.6587 93.7221 67.6321 95.2147 67.6321C96.7074 67.6321 97.9174 68.6587 97.9174 69.925C97.9174 71.1913 96.7074 72.2179 95.2147 72.2179ZM95.2147 72.6C93.4733 72.6 92.0617 71.4024 92.0617 69.925C92.0617 68.4476 93.4733 67.25 95.2147 67.25C96.9561 67.25 98.3678 68.4476 98.3678 69.925C98.3678 71.4024 96.9561 72.6 95.2147 72.6Z" fill="#F2DB07"/>
<rect x="112.782" y="124.857" width="17.7923" height="0.382143" rx="0.191071" transform="rotate(-180 112.782 124.857)" fill="#F2DB07"/>
<rect x="112.782" y="124.857" width="0.450437" height="30.5714" rx="0.225219" transform="rotate(-180 112.782 124.857)" fill="#F2DB07"/>
<rect x="95.44" y="124.857" width="0.450437" height="4.20357" rx="0.225219" transform="rotate(-180 95.44 124.857)" fill="#F2DB07"/>
<rect x="95.44" y="115.686" width="0.450437" height="11.4643" transform="rotate(-180 95.44 115.686)" fill="#F2DB07"/>
<rect width="0.434521" height="6.40496" rx="0.217261" transform="matrix(-0.898056 -0.43988 0.56261 -0.826722 95.3576 104.508)" fill="#F2DB07"/>
<rect width="0.434743" height="6.40496" rx="0.217372" transform="matrix(0.898056 -0.43988 -0.56261 -0.826722 95.0799 104.508)" fill="#F2DB07"/>
<rect width="0.434289" height="6.40496" rx="0.217144" transform="matrix(0.898056 -0.43988 -0.56261 -0.826722 95.0801 115.781)" fill="#F2DB07"/>
<rect width="0.434313" height="6.40496" rx="0.217157" transform="matrix(-0.898056 -0.43988 0.56261 -0.826722 95.3575 115.781)" fill="#F2DB07"/>
<path fill-rule="evenodd" clip-rule="evenodd" d="M95.2147 116.068C93.7221 116.068 92.5121 117.094 92.5121 118.361C92.5121 119.627 93.7221 120.654 95.2147 120.654C96.7074 120.654 97.9174 119.627 97.9174 118.361C97.9174 117.094 96.7074 116.068 95.2147 116.068ZM95.2147 115.686C93.4733 115.686 92.0617 116.883 92.0617 118.361C92.0617 119.838 93.4733 121.036 95.2147 121.036C96.9561 121.036 98.3678 119.838 98.3678 118.361C98.3678 116.883 96.9561 115.686 95.2147 115.686Z" fill="#F2DB07"/>
<rect width="17.7923" height="0.382143" rx="0.191071" transform="matrix(1 0 0 -1 68.0753 124.857)" fill="#F2DB07"/>
<rect width="0.450437" height="30.5714" rx="0.225219" transform="matrix(1 0 0 -1 68.0753 124.857)" fill="#F2DB07"/>
<rect width="0.450437" height="4.20357" rx="0.225219" transform="matrix(1 0 0 -1 85.4171 124.857)" fill="#F2DB07"/>
<rect width="0.450437" height="11.4643" transform="matrix(1 0 0 -1 85.4171 115.686)" fill="#F2DB07"/>
<rect width="0.434521" height="6.40496" rx="0.217261" transform="matrix(0.898056 -0.43988 -0.56261 -0.826722 85.4995 104.508)" fill="#F2DB07"/>
<rect width="0.434743" height="6.40496" rx="0.217372" transform="matrix(-0.898056 -0.43988 0.56261 -0.826722 85.7773 104.508)" fill="#F2DB07"/>
<rect width="0.434289" height="6.40496" rx="0.217144" transform="matrix(-0.898056 -0.43988 0.56261 -0.826722 85.777 115.781)" fill="#F2DB07"/>
<rect width="0.434313" height="6.40496" rx="0.217157" transform="matrix(0.898056 -0.43988 -0.56261 -0.826722 85.4996 115.781)" fill="#F2DB07"/>
<path fill-rule="evenodd" clip-rule="evenodd" d="M85.6424 116.068C87.135 116.068 88.345 117.094 88.345 118.361C88.345 119.627 87.135 120.654 85.6424 120.654C84.1498 120.654 82.9398 119.627 82.9398 118.361C82.9398 117.094 84.1498 116.068 85.6424 116.068ZM85.6424 115.686C87.3838 115.686 88.7954 116.883 88.7954 118.361C88.7954 119.838 87.3838 121.036 85.6424 121.036C83.901 121.036 82.4893 119.838 82.4893 118.361C82.4893 116.883 83.901 115.686 85.6424 115.686Z" fill="#F2DB07"/>
<rect x="120" y="93.5754" width="30" height="0.424603" rx="0.212302" fill="#2D8404"/>
<rect x="128.075" y="63.4286" width="17.7923" height="0.382143" rx="0.191071" fill="#2D8404"/>
<rect x="128.075" y="63.4286" width="0.450437" height="30.5714" rx="0.225219" fill="#2D8404"/>
<rect x="145.417" y="63.4286" width="0.450437" height="4.20357" rx="0.225219" fill="#2D8404"/>
<rect x="145.417" y="72.6" width="0.450437" height="11.4643" fill="#2D8404"/>
<rect width="0.434521" height="6.40496" rx="0.217261" transform="matrix(0.898056 0.43988 -0.56261 0.826722 145.5 83.7776)" fill="#2D8404"/>
<rect width="0.434743" height="6.40496" rx="0.217372" transform="matrix(-0.898056 0.43988 0.56261 0.826722 145.777 83.7776)" fill="#2D8404"/>
<rect width="0.434289" height="6.40496" rx="0.217144" transform="matrix(-0.898056 0.43988 0.56261 0.826722 145.777 72.5045)" fill="#2D8404"/>
<rect width="0.434313" height="6.40496" rx="0.217157" transform="matrix(0.898056 0.43988 -0.56261 0.826722 145.5 72.5045)" fill="#2D8404"/>
<path fill-rule="evenodd" clip-rule="evenodd" d="M145.642 72.2179C147.135 72.2179 148.345 71.1913 148.345 69.925C148.345 68.6587 147.135 67.6321 145.642 67.6321C144.15 67.6321 142.94 68.6587 142.94 69.925C142.94 71.1913 144.15 72.2179 145.642 72.2179ZM145.642 72.6C147.384 72.6 148.795 71.4024 148.795 69.925C148.795 68.4476 147.384 67.25 145.642 67.25C143.901 67.25 142.489 68.4476 142.489 69.925C142.489 71.4024 143.901 72.6 145.642 72.6Z" fill="#2D8404"/>
<rect width="30" height="0.424603" rx="0.212302" transform="matrix(-1 0 0 1 180 93.5754)" fill="#2D8404"/>
<rect width="17.7923" height="0.382143" rx="0.191071" transform="matrix(-1 0 0 1 172.782 63.4286)" fill="#2D8404"/>
<rect width="0.450437" height="30.5714" rx="0.225219" transform="matrix(-1 0 0 1 172.782 63.4286)" fill="#2D8404"/>
<rect width="0.450437" height="4.20357" rx="0.225219" transform="matrix(-1 0 0 1 155.44 63.4286)" fill="#2D8404"/>
<rect width="0.450437" height="11.4643" transform="matrix(-1 0 0 1 155.44 72.6)" fill="#2D8404"/>
<rect width="0.434521" height="6.40496" rx="0.217261" transform="matrix(-0.898056 0.43988 0.56261 0.826722 155.358 83.7776)" fill="#2D8404"/>
<rect width="0.434743" height="6.40496" rx="0.217372" transform="matrix(0.898056 0.43988 -0.56261 0.826722 155.08 83.7776)" fill="#2D8404"/>
<rect width="0.434289" height="6.40496" rx="0.217144" transform="matrix(0.898056 0.43988 -0.56261 0.826722 155.08 72.5045)" fill="#2D8404"/>
<rect width="0.434313" height="6.40496" rx="0.217157" transform="matrix(-0.898056 0.43988 0.56261 0.826722 155.358 72.5045)" fill="#2D8404"/>
<path fill-rule="evenodd" clip-rule="evenodd" d="M155.215 72.2179C153.722 72.2179 152.512 71.1913 152.512 69.925C152.512 68.6587 153.722 67.6321 155.215 67.6321C156.707 67.6321 157.917 68.6587 157.917 69.925C157.917 71.1913 156.707 72.2179 155.215 72.2179ZM155.215 72.6C153.473 72.6 152.062 71.4024 152.062 69.925C152.062 68.4476 153.473 67.25 155.215 67.25C156.956 67.25 158.368 68.4476 158.368 69.925C158.368 71.4024 156.956 72.6 155.215 72.6Z" fill="#2D8404"/>
<rect x="172.782" y="124.857" width="17.7923" height="0.382143" rx="0.191071" transform="rotate(-180 172.782 124.857)" fill="#2D8404"/>
<rect x="172.782" y="124.857" width="0.450437" height="30.5714" rx="0.225219" transform="rotate(-180 172.782 124.857)" fill="#2D8404"/>
<rect x="155.44" y="124.857" width="0.450437" height="4.20357" rx="0.225219" transform="rotate(-180 155.44 124.857)" fill="#2D8404"/>
<rect x="155.44" y="115.686" width="0.450437" height="11.4643" transform="rotate(-180 155.44 115.686)" fill="#2D8404"/>
<rect width="0.434521" height="6.40496" rx="0.217261" transform="matrix(-0.898056 -0.43988 0.56261 -0.826722 155.358 104.508)" fill="#2D8404"/>
<rect width="0.434743" height="6.40496" rx="0.217372" transform="matrix(0.898056 -0.43988 -0.56261 -0.826722 155.08 104.508)" fill="#2D8404"/>
<rect width="0.434289" height="6.40496" rx="0.217144" transform="matrix(0.898056 -0.43988 -0.56261 -0.826722 155.08 115.781)" fill="#2D8404"/>
<rect width="0.434313" height="6.40496" rx="0.217157" transform="matrix(-0.898056 -0.43988 0.56261 -0.826722 155.358 115.781)" fill="#2D8404"/>
<path fill-rule="evenodd" clip-rule="evenodd" d="M155.215 116.068C153.722 116.068 152.512 117.094 152.512 118.361C152.512 119.627 153.722 120.654 155.215 120.654C156.707 120.654 157.917 119.627 157.917 118.361C157.917 117.094 156.707 116.068 155.215 116.068ZM155.215 115.686C153.473 115.686 152.062 116.883 152.062 118.361C152.062 119.838 153.473 121.036 155.215 121.036C156.956 121.036 158.368 119.838 158.368 118.361C158.368 116.883 156.956 115.686 155.215 115.686Z" fill="#2D8404"/>
<rect width="17.7923" height="0.382143" rx="0.191071" transform="matrix(1 0 0 -1 128.075 124.857)" fill="#2D8404"/>
<rect width="0.450437" height="30.5714" rx="0.225219" transform="matrix(1 0 0 -1 128.075 124.857)" fill="#2D8404"/>
<rect width="0.450437" height="4.20357" rx="0.225219" transform="matrix(1 0 0 -1 145.417 124.857)" fill="#2D8404"/>
<rect width="0.450437" height="11.4643" transform="matrix(1 0 0 -1 145.417 115.686)" fill="#2D8404"/>
<rect width="0.434521" height="6.40496" rx="0.217261" transform="matrix(0.898056 -0.43988 -0.56261 -0.826722 145.5 104.508)" fill="#2D8404"/>
<rect width="0.434743" height="6.40496" rx="0.217372" transform="matrix(-0.898056 -0.43988 0.56261 -0.826722 145.777 104.508)" fill="#2D8404"/>
<rect width="0.434289" height="6.40496" rx="0.217144" transform="matrix(-0.898056 -0.43988 0.56261 -0.826722 145.777 115.781)" fill="#2D8404"/>
<rect width="0.434313" height="6.40496" rx="0.217157" transform="matrix(0.898056 -0.43988 -0.56261 -0.826722 145.5 115.781)" fill="#2D8404"/>
<path fill-rule="evenodd" clip-rule="evenodd" d="M145.642 116.068C147.135 116.068 148.345 117.094 148.345 118.361C148.345 119.627 147.135 120.654 145.642 120.654C144.15 120.654 142.94 119.627 142.94 118.361C142.94 117.094 144.15 116.068 145.642 116.068ZM145.642 115.686C147.384 115.686 148.795 116.883 148.795 118.361C148.795 119.838 147.384 121.036 145.642 121.036C143.901 121.036 142.489 119.838 142.489 118.361C142.489 116.883 143.901 115.686 145.642 115.686Z" fill="#2D8404"/>
<rect x="180" y="93.5754" width="30" height="0.424603" rx="0.212302" fill="#0A9A9A"/>
<rect x="188.075" y="63.4286" width="17.7923" height="0.382143" rx="0.191071" fill="#0A9A9A"/>
<rect x="188.075" y="63.4286" width="0.450437" height="30.5714" rx="0.225219" fill="#0A9A9A"/>
<rect x="205.417" y="63.4286" width="0.450437" height="4.20357" rx="0.225219" fill="#0A9A9A"/>
<rect x="205.417" y="72.6" width="0.450437" height="11.4643" fill="#0A9A9A"/>
<rect width="0.434521" height="6.40496" rx="0.217261" transform="matrix(0.898056 0.43988 -0.56261 0.826722 205.5 83.7776)" fill="#0A9A9A"/>
<rect width="0.434743" height="6.40496" rx="0.217372" transform="matrix(-0.898056 0.43988 0.56261 0.826722 205.777 83.7776)" fill="#0A9A9A"/>
<rect width="0.434289" height="6.40496" rx="0.217144" transform="matrix(-0.898056 0.43988 0.56261 0.826722 205.777 72.5045)" fill="#0A9A9A"/>
<rect width="0.434313" height="6.40496" rx="0.217157" transform="matrix(0.898056 0.43988 -0.56261 0.826722 205.5 72.5045)" fill="#0A9A9A"/>
<path fill-rule="evenodd" clip-rule="evenodd" d="M205.642 72.2179C207.135 72.2179 208.345 71.1913 208.345 69.925C208.345 68.6587 207.135 67.6321 205.642 67.6321C204.15 67.6321 202.94 68.6587 202.94 69.925C202.94 71.1913 204.15 72.2179 205.642 72.2179ZM205.642 72.6C207.384 72.6 208.795 71.4024 208.795 69.925C208.795 68.4476 207.384 67.25 205.642 67.25C203.901 67.25 202.489 68.4476 202.489 69.925C202.489 71.4024 203.901 72.6 205.642 72.6Z" fill="#0A9A9A"/>
<rect width="30" height="0.424603" rx="0.212302" transform="matrix(-1 0 0 1 240 93.5754)" fill="#0A9A9A"/>
<rect width="17.7923" height="0.382143" rx="0.191071" transform="matrix(-1 0 0 1 232.782 63.4286)" fill="#0A9A9A"/>
<rect width="0.450437" height="30.5714" rx="0.225219" transform="matrix(-1 0 0 1 232.782 63.4286)" fill="#0A9A9A"/>
<rect width="0.450437" height="4.20357" rx="0.225219" transform="matrix(-1 0 0 1 215.44 63.4286)" fill="#0A9A9A"/>
<rect width="0.450437" height="11.4643" transform="matrix(-1 0 0 1 215.44 72.6)" fill="#0A9A9A"/>
<rect width="0.434521" height="6.40496" rx="0.217261" transform="matrix(-0.898056 0.43988 0.56261 0.826722 215.358 83.7776)" fill="#0A9A9A"/>
<rect width="0.434743" height="6.40496" rx="0.217372" transform="matrix(0.898056 0.43988 -0.56261 0.826722 215.08 83.7776)" fill="#0A9A9A"/>
<rect width="0.434289" height="6.40496" rx="0.217144" transform="matrix(0.898056 0.43988 -0.56261 0.826722 215.08 72.5045)" fill="#0A9A9A"/>
<rect width="0.434313" height="6.40496" rx="0.217157" transform="matrix(-0.898056 0.43988 0.56261 0.826722 215.358 72.5045)" fill="#0A9A9A"/>
<path fill-rule="evenodd" clip-rule="evenodd" d="M215.215 72.2179C213.722 72.2179 212.512 71.1913 212.512 69.925C212.512 68.6587 213.722 67.6321 215.215 67.6321C216.707 67.6321 217.917 68.6587 217.917 69.925C217.917 71.1913 216.707 72.2179 215.215 72.2179ZM215.215 72.6C213.473 72.6 212.062 71.4024 212.062 69.925C212.062 68.4476 213.473 67.25 215.215 67.25C216.956 67.25 218.368 68.4476 218.368 69.925C218.368 71.4024 216.956 72.6 215.215 72.6Z" fill="#0A9A9A"/>
<rect x="232.782" y="124.857" width="17.7923" height="0.382143" rx="0.191071" transform="rotate(-180 232.782 124.857)" fill="#0A9A9A"/>
<rect x="232.782" y="124.857" width="0.450437" height="30.5714" rx="0.225219" transform="rotate(-180 232.782 124.857)" fill="#0A9A9A"/>
<rect x="215.44" y="124.857" width="0.450437" height="4.20357" rx="0.225219" transform="rotate(-180 215.44 124.857)" fill="#0A9A9A"/>
<rect x="215.44" y="115.686" width="0.450437" height="11.4643" transform="rotate(-180 215.44 115.686)" fill="#0A9A9A"/>
<rect width="0.434521" height="6.40496" rx="0.217261" transform="matrix(-0.898056 -0.43988 0.56261 -0.826722 215.358 104.508)" fill="#0A9A9A"/>
<rect width="0.434743" height="6.40496" rx="0.217372" transform="matrix(0.898056 -0.43988 -0.56261 -0.826722 215.08 104.508)" fill="#0A9A9A"/>
<rect width="0.434289" height="6.40496" rx="0.217144" transform="matrix(0.898056 -0.43988 -0.56261 -0.826722 215.08 115.781)" fill="#0A9A9A"/>
<rect width="0.434313" height="6.40496" rx="0.217157" transform="matrix(-0.898056 -0.43988 0.56261 -0.826722 215.358 115.781)" fill="#0A9A9A"/>
<path fill-rule="evenodd" clip-rule="evenodd" d="M215.215 116.068C213.722 116.068 212.512 117.094 212.512 118.361C212.512 119.627 213.722 120.654 215.215 120.654C216.707 120.654 217.917 119.627 217.917 118.361C217.917 117.094 216.707 116.068 215.215 116.068ZM215.215 115.686C213.473 115.686 212.062 116.883 212.062 118.361C212.062 119.838 213.473 121.036 215.215 121.036C216.956 121.036 218.368 119.838 218.368 118.361C218.368 116.883 216.956 115.686 215.215 115.686Z" fill="#0A9A9A"/>
<rect width="17.7923" height="0.382143" rx="0.191071" transform="matrix(1 0 0 -1 188.075 124.857)" fill="#0A9A9A"/>
<rect width="0.450437" height="30.5714" rx="0.225219" transform="matrix(1 0 0 -1 188.075 124.857)" fill="#0A9A9A"/>
<rect width="0.450437" height="4.20357" rx="0.225219" transform="matrix(1 0 0 -1 205.417 124.857)" fill="#0A9A9A"/>
<rect width="0.450437" height="11.4643" transform="matrix(1 0 0 -1 205.417 115.686)" fill="#0A9A9A"/>
<rect width="0.434521" height="6.40496" rx="0.217261" transform="matrix(0.898056 -0.43988 -0.56261 -0.826722 205.5 104.508)" fill="#0A9A9A"/>
<rect width="0.434743" height="6.40496" rx="0.217372" transform="matrix(-0.898056 -0.43988 0.56261 -0.826722 205.777 104.508)" fill="#0A9A9A"/>
<rect width="0.434289" height="6.40496" rx="0.217144" transform="matrix(-0.898056 -0.43988 0.56261 -0.826722 205.777 115.781)" fill="#0A9A9A"/>
<rect width="0.434313" height="6.40496" rx="0.217157" transform="matrix(0.898056 -0.43988 -0.56261 -0.826722 205.5 115.781)" fill="#0A9A9A"/>
<path fill-rule="evenodd" clip-rule="evenodd" d="M205.642 116.068C207.135 116.068 208.345 117.094 208.345 118.361C208.345 119.627 207.135 120.654 205.642 120.654C204.15 120.654 202.94 119.627 202.94 118.361C202.94 117.094 204.15 116.068 205.642 116.068ZM205.642 115.686C207.384 115.686 208.795 116.883 208.795 118.361C208.795 119.838 207.384 121.036 205.642 121.036C203.901 121.036 202.489 119.838 202.489 118.361C202.489 116.883 203.901 115.686 205.642 115.686Z" fill="#0A9A9A"/>
</svg>
